<svg width="62" height="61" viewBox="0 0 62 61" fill="none" xmlns="http://www.w3.org/2000/svg">
<path d="M34.7705 39.085C34.7854 46.4237 34.1245 53.2169 32.8826 59.9562C32.8243 60.272 32.7431 60.4385 32.352 60.3765C31.2657 60.2043 30.1726 60.3535 29.0817 60.3742C24.1635 60.4638 19.9475 58.9664 16.9344 54.8601C16.222 53.8887 15.3472 53.3823 14.1763 53.2273C12.142 52.9574 10.2232 52.3293 8.52973 51.1225C6.16956 49.4391 4.92316 47.0725 4.37428 44.2764C4.19476 43.3658 4.16045 42.4403 4.02552 41.5251C3.82312 40.1392 3.30969 38.8795 2.60073 37.6784C0.134224 33.4998 -0.147075 29.1777 1.83459 24.7292C2.20623 23.8956 2.66705 23.1055 3.26739 22.4235C4.36514 21.1753 4.90029 19.717 5.11755 18.0887C5.61611 14.3453 7.56005 11.6158 10.9379 9.93819C11.8699 9.47543 12.6223 8.83813 13.1997 7.95855C15.9738 3.73402 19.9223 1.44779 24.8919 0.871347C25.6969 0.778336 26.5054 0.707143 27.3093 0.607242C27.5871 0.572794 27.7141 0.649729 27.8147 0.925317C29.9564 6.8183 31.7037 12.8238 32.862 18.9912C33.7517 23.7256 34.344 28.499 34.5967 33.3126C34.7076 35.3968 34.7854 37.4797 34.7705 39.085ZM31.4647 46.7062C30.7843 46.937 30.3761 47.3848 30.0799 47.9567C29.9656 48.1783 29.8718 48.4125 29.7392 48.6227C29.2864 49.3346 28.7157 49.5195 27.9256 49.2152C27.3253 48.9844 26.7821 48.641 26.2321 48.3161C25.5666 47.9222 25.4511 47.4055 25.9348 46.7866C26.4551 46.1194 26.917 45.4109 27.4465 44.753C27.9668 44.1053 28.574 43.6139 29.4647 43.5174C30.1634 43.4416 30.8209 43.1637 31.3961 42.732C31.5482 42.6172 31.6717 42.5058 31.6774 42.2807C31.7003 41.3242 31.7792 40.3688 31.7746 39.4134C31.7563 35.4599 31.5562 31.5156 31.1125 27.585C31.0851 27.345 31.0004 27.2313 30.7729 27.159C29.4705 26.7421 28.2961 26.9982 27.2704 27.8732C26.6415 28.4106 26.0823 29.0307 25.4648 29.583C24.0412 30.8553 22.4288 31.7211 20.4781 31.813C18.374 31.9117 16.7457 32.8108 15.656 34.6561C15.3849 35.1154 15.0133 35.5058 14.5456 35.7849C14.1237 36.0363 13.6697 36.1041 13.2649 35.8101C12.5845 35.3152 12.0471 34.6883 11.7841 33.8649C11.6069 33.3115 11.7601 32.8166 12.0825 32.3573C12.3398 31.991 12.7183 31.7578 13.0419 31.465C13.7612 30.8128 14.142 30.0125 13.9304 29.0295C13.7418 28.1557 13.0488 27.8583 12.2701 27.647C10.6326 27.2026 10.0803 26.4459 10.0792 24.7338C10.0792 24.6086 10.0792 24.4823 10.0792 24.3572C10.0792 23.4535 10.0792 23.4477 10.9768 23.3628C12.7115 23.2008 14.2986 23.5614 15.6468 24.7304C16.3306 25.324 16.8166 26.0681 17.2305 26.8673C17.6765 27.7285 18.3649 28.1901 19.3574 28.081C20.0435 28.0053 20.7033 27.8204 21.3288 27.5184C22.4494 26.9764 23.3036 26.1037 24.1692 25.2402C25.1229 24.2883 26.2024 23.5361 27.5128 23.1549C28.3876 22.9 29.2715 22.923 30.1588 23.0424C30.3967 23.0745 30.5099 23.0447 30.4676 22.7599C30.4024 22.3121 30.4093 21.8505 30.3178 21.4084C29.9759 19.7365 29.5997 18.0715 29.2543 16.3996C29.2006 16.1412 29.076 16.0241 28.8461 15.9563C28.3441 15.8059 27.8295 15.8105 27.3138 15.8117C25.9405 15.8139 24.6609 15.4683 23.4877 14.7472C22.3602 14.0548 21.4592 13.1293 20.7788 11.9971C20.2059 11.0451 20.3889 10.4274 21.3643 9.92096C21.6673 9.76365 21.9863 9.63159 22.3065 9.51217C23.4191 9.09764 23.6684 9.19639 24.4037 10.1437C25.2738 11.2645 26.3933 11.9282 27.8524 11.9178C28.2 11.9155 28.3384 11.8616 28.2355 11.4413C28.0171 10.5525 27.594 9.74527 27.307 8.89095C26.8885 7.64621 26.5042 6.3877 26.0983 5.13722C26.0137 4.87656 25.8959 4.80192 25.6306 4.83751C22.7799 5.22104 20.2059 6.20167 18.0607 8.20772C16.3946 9.76594 15.6491 11.5515 16.3866 13.8228C16.8132 15.1365 17.3609 16.3364 18.6645 17.0116C19.3837 17.3836 20.1499 17.5926 20.9492 17.642C21.8217 17.696 22.6976 17.6765 23.57 17.7316C24.239 17.7741 24.5134 18.0715 24.5717 18.7421C24.6141 19.2255 24.6232 19.7124 24.6449 20.1969C24.6872 21.1397 24.3934 21.5221 23.4717 21.684C21.8434 21.9687 20.2208 21.9251 18.6668 21.3452C15.6742 20.2291 13.2866 18.5078 12.7172 15.0526C12.604 14.366 12.0597 14.1317 11.3953 14.3935C11.0648 14.5244 10.7984 14.7483 10.6052 15.0366C9.88591 16.1091 9.3153 17.2482 9.04773 18.5285C8.84647 19.4965 8.99856 20.4668 8.96654 21.4359C8.93567 22.3695 8.64522 23.1388 7.85049 23.744C4.49321 26.2989 3.22736 31.5121 5.9969 35.3864C7.01346 36.8091 7.63552 38.3995 7.95455 40.1208C8.14094 41.1267 8.18096 42.1452 8.30675 43.1557C8.70582 46.3801 10.8064 48.6365 13.9819 49.2427C14.5754 49.3564 14.9013 49.1693 14.9916 48.579C15.1197 47.7385 15.3769 46.9335 15.5805 46.1137C16.0059 44.3993 15.569 43.4554 13.9853 42.6711C13.744 42.5517 13.5062 42.43 13.3472 42.2072C12.7446 41.3644 12.2404 40.4618 11.9053 39.48C11.7429 39.0035 11.7704 38.512 12.1786 38.1285C13.5005 36.8884 15.4719 37.3029 16.1762 38.9702C16.3112 39.2883 16.4427 39.6064 16.6588 39.8785C17.1173 40.4549 17.6662 40.5755 18.3191 40.2425C18.7308 40.0324 19.0384 39.7005 19.3586 39.3767C21.4672 37.2397 24.1349 36.3154 27.0108 35.8917C27.7941 35.7757 28.2652 36.1879 28.4848 36.9653C28.6437 37.5291 28.6872 38.1101 28.6403 38.69C28.582 39.4123 28.2103 39.7717 27.4762 39.8751C27.0909 39.929 26.6963 39.952 26.3201 40.045C22.6564 40.9418 19.8205 44.095 19.1859 47.8223C18.7903 50.1441 19.3803 52.0641 21.1276 53.6338C21.7713 54.2114 22.4757 54.6959 23.2201 55.1311C25.4008 56.4057 27.7895 56.4941 30.2149 56.4069C30.439 56.3988 30.4481 56.2588 30.471 56.0968C30.6025 55.1977 30.7306 54.2975 30.8747 53.3995C31.2337 51.2017 31.4693 48.9936 31.4647 46.7062Z" fill="#2A1C44"/>
<path d="M37.125 39.642C37.1559 33.8489 36.7442 28.3647 35.9575 22.9103C34.8529 15.241 32.9467 7.77139 30.3086 0.491275C30.1623 0.0870795 30.2172 0.015886 30.6437 0.00784802C35.0507 -0.0771249 39.3479 0.517685 43.4073 2.29293C52.9875 6.48301 59.0983 13.677 61.2881 23.9507C63.1783 32.8212 61.2846 41.0084 55.8462 48.2598C51.2619 54.3721 45.1237 58.1086 37.6533 59.6278C36.966 59.7679 36.2674 59.8563 35.579 59.9907C35.2977 60.0458 35.2737 59.97 35.316 59.7116C35.6327 57.763 35.9586 55.8167 36.2079 53.8577C36.4595 51.8827 36.6664 49.903 36.8151 47.9188C37.0278 45.071 37.1593 42.2199 37.125 39.642ZM34.4115 3.14496C34.7785 4.34721 35.1387 5.50812 35.4829 6.67363C35.5493 6.89869 35.7059 6.8918 35.8751 6.92281C42.7258 8.18477 48.0442 11.7548 51.828 17.6248C51.964 17.8361 52.1173 17.959 52.362 18.0313C53.8188 18.4676 54.5483 19.9673 53.996 21.3992C53.9023 21.6415 53.9126 21.8378 53.996 22.0709C55.534 26.3701 55.8325 30.7554 54.8411 35.2153C53.781 39.9784 51.4358 44.0054 47.8761 47.3228C45.509 49.5287 42.7955 51.1638 39.7539 52.2501C39.564 52.3179 39.3914 52.3626 39.3616 52.6382C39.2553 53.651 39.1124 54.6604 38.99 55.672C38.9203 56.245 38.9271 56.2473 39.4737 56.0877C44.5897 54.5926 48.9372 51.854 52.3746 47.7718C58.2395 40.8063 60.3481 32.7615 58.1961 23.9162C55.6438 13.4267 48.8881 6.78616 38.5486 3.84082C37.2153 3.46073 35.8386 3.26323 34.4115 3.14496ZM39.7413 49.0338C39.9746 48.9339 40.1461 48.8638 40.3153 48.7869C43.1672 47.4962 45.6405 45.6785 47.6028 43.2338C52.3917 37.2662 53.5947 30.6084 51.2711 23.3076C51.1945 23.0654 51.0618 22.9322 50.8126 22.8414C49.5181 22.3707 48.8469 21.0559 49.2437 19.7365C49.342 19.4104 49.2974 19.183 49.1213 18.9143C46.8675 15.481 43.8693 12.9364 40.1175 11.292C38.9511 10.781 37.7459 10.3803 36.4515 10.1162C36.7419 11.3425 37.0301 12.5103 37.2896 13.6827C37.3514 13.9629 37.4726 14.0973 37.7425 14.1972C45.915 17.2241 50.4318 25.7753 48.338 34.2416C48.2843 34.4598 48.258 34.6469 48.3586 34.872C49.0379 36.3808 48.3964 37.8977 46.8538 38.4409C46.696 38.496 46.5828 38.558 46.497 38.7038C44.9613 41.2955 42.8813 43.3291 40.2719 44.8196C40.1346 44.8977 40.0111 44.9666 39.9986 45.1618C39.9208 46.426 39.8316 47.6914 39.7413 49.0338ZM40.1106 41.3001C40.2307 41.2369 40.2867 41.2163 40.3336 41.1818C41.6944 40.1495 42.8196 38.9025 43.7366 37.4591C43.8567 37.2708 43.827 37.1249 43.7629 36.9389C43.2918 35.5702 43.8167 34.2956 45.1145 33.6904C45.341 33.5848 45.4427 33.4562 45.4976 33.2196C45.6577 32.5307 45.7823 31.8348 45.8201 31.132C46.0739 26.4585 44.4365 22.5716 40.9397 19.4839C40.1106 18.7513 39.1947 18.1381 38.1164 17.6374C39.5778 25.4813 40.2536 33.3195 40.1106 41.3001Z" fill="#E93F81"/>
</svg>
