<svg width="33" height="32" viewBox="0 0 33 32" fill="none" xmlns="http://www.w3.org/2000/svg">
<g clip-path="url(#clip0_283_15781)">
<path opacity="0.2" d="M7.30761 25.1924C6.15711 24.0419 6.92019 21.6265 6.3346 20.2111C5.72755 18.744 3.5 17.5631 3.5 16C3.5 14.4368 5.72756 13.256 6.3346 11.7888C6.9202 10.3735 6.15711 7.95811 7.30761 6.80761C8.45811 5.65711 10.8735 6.42019 12.2889 5.8346C13.756 5.22755 14.9369 3 16.5 3C18.0632 3 19.244 5.22756 20.7112 5.8346C22.1265 6.4202 24.5419 5.65711 25.6924 6.80761C26.8429 7.95811 26.0798 10.3735 26.6654 11.7889C27.2725 13.256 29.5 14.4369 29.5 16C29.5 17.5632 27.2724 18.744 26.6654 20.2112C26.0798 21.6265 26.8429 24.0419 25.6924 25.1924C24.5419 26.3429 22.1265 25.5798 20.7111 26.1654C19.244 26.7725 18.0631 29 16.5 29C14.9368 29 13.756 26.7724 12.2888 26.1654C10.8735 25.5798 8.45811 26.3429 7.30761 25.1924Z" fill="#0A65CC"/>
<path d="M7.30761 25.1924C6.15711 24.0419 6.92019 21.6265 6.3346 20.2111C5.72755 18.744 3.5 17.5631 3.5 16C3.5 14.4368 5.72756 13.256 6.3346 11.7888C6.9202 10.3735 6.15711 7.95811 7.30761 6.80761C8.45811 5.65711 10.8735 6.42019 12.2889 5.8346C13.756 5.22755 14.9369 3 16.5 3C18.0632 3 19.244 5.22756 20.7112 5.8346C22.1265 6.4202 24.5419 5.65711 25.6924 6.80761C26.8429 7.95811 26.0798 10.3735 26.6654 11.7889C27.2725 13.256 29.5 14.4369 29.5 16C29.5 17.5632 27.2724 18.744 26.6654 20.2112C26.0798 21.6265 26.8429 24.0419 25.6924 25.1924C24.5419 26.3429 22.1265 25.5798 20.7111 26.1654C19.244 26.7725 18.0631 29 16.5 29C14.9368 29 13.756 26.7724 12.2888 26.1654C10.8735 25.5798 8.45811 26.3429 7.30761 25.1924Z" stroke="#0A65CC" stroke-width="2" stroke-linecap="round" stroke-linejoin="round"/>
<path d="M22 13L14.6666 20L11 16.5" stroke="#0A65CC" stroke-width="2" stroke-linecap="round" stroke-linejoin="round"/>
</g>
<defs>
<clipPath id="clip0_283_15781">
<rect width="32" height="32" fill="white" transform="translate(0.5)"/>
</clipPath>
</defs>
</svg>
