<svg width="400" height="350" viewBox="0 0 400 350" fill="none" xmlns="http://www.w3.org/2000/svg">
<path d="M27.527 103.022C28.6337 100.605 29.2365 97.973 30.7482 95.709C35.247 88.8992 41.6984 85.6649 49.7873 85.647C71.3368 85.647 92.8863 85.5571 114.436 85.7188C117.774 85.7188 118.521 84.8205 118.44 81.6132C118.224 72.5394 118.323 63.4656 118.377 54.3829C118.44 42.5151 125.836 35.0494 137.641 35.0314C166.938 34.9895 196.234 34.9895 225.531 35.0314C237.228 35.0314 244.894 42.7397 244.957 54.3918C244.957 63.6902 245.047 72.9976 244.912 82.296C244.912 84.8294 245.415 85.8895 248.196 85.7009C252.335 85.4583 256.501 85.5841 260.649 85.656C264.248 85.7189 266.515 87.6684 266.596 90.7049C266.677 93.7415 264.545 95.7449 260.883 96.0145C259.767 96.0953 258.642 96.0145 257.517 96.0145H51.7848C41.4015 96.0145 37.6224 99.8057 37.6224 110.191C37.6224 124.197 37.6224 138.203 37.6224 152.218C37.7034 179.924 55.9507 201.711 83.2228 206.939C85.8771 207.451 86.273 206.697 86.1831 204.388C86.0391 200.92 86.0841 197.443 86.1831 193.966C86.336 187.372 90.9608 181.928 97.5472 181.613C105.942 181.2 114.382 181.209 122.741 181.613C129.138 181.91 133.646 186.941 133.988 193.293C134.202 196.984 134.223 200.685 134.051 204.379C133.916 207.002 134.699 207.847 137.416 207.802C148.213 207.649 159.011 207.739 169.736 207.739C188.037 207.739 206.329 207.667 224.622 207.82C227.672 207.82 228.491 206.921 228.275 204.064C228.014 200.722 228.176 197.344 228.221 193.984C228.32 187.507 232.792 182.126 239.189 181.631C247.806 180.985 256.459 180.985 265.076 181.631C271.374 182.099 275.873 187.3 276.035 193.616C276.143 197.308 276.17 201.01 276.035 204.702C275.963 206.777 276.44 207.397 278.68 207.029C305.574 202.348 324.442 180.14 324.568 152.919C324.568 149.667 324.433 146.405 324.622 143.171C324.739 141.006 323.957 140.26 321.869 140.009C308.678 138.419 298.052 132.184 290.539 121.331C280.057 106.166 278.923 89.8874 287.84 73.8151C296.639 57.8866 310.748 49.9089 329.13 50.5018C351.624 51.2205 370.286 68.847 372.319 90.8756C374.317 113.47 359.569 134.214 337.723 139.191C335.447 139.712 334.871 140.602 334.88 142.785C334.934 151.957 335.725 161.301 332.549 170.087C330.003 177.13 329.805 184.21 329.85 191.496C329.976 220.748 330.009 249.996 329.949 279.242C329.949 297.048 318.432 310.955 300.94 314.504C298.281 314.925 295.586 315.079 292.896 314.962C240.038 314.962 187.173 314.962 134.303 314.962C129.201 314.962 126.7 313.291 126.709 309.913C126.718 306.535 129.255 304.81 134.294 304.81H293.553C308.912 304.81 319.692 294.299 319.746 278.937C319.863 251.814 319.746 224.691 319.746 197.578C319.746 197.039 319.692 196.5 319.647 195.691C318.198 196.123 317.604 197.272 316.812 198.081C306.671 208.722 293.146 215.521 278.545 217.316C276.692 217.558 276.044 218.169 276.089 220.011C276.179 224.045 276.188 228.096 276.089 232.112C276.009 235.339 274.674 238.409 272.366 240.67C270.058 242.931 266.959 244.205 263.726 244.223C256.096 244.318 248.463 244.318 240.827 244.223C239.169 244.216 237.528 243.882 236 243.24C234.471 242.599 233.084 241.662 231.919 240.485C230.754 239.307 229.833 237.911 229.209 236.377C228.585 234.843 228.271 233.202 228.284 231.546C228.239 228.069 228.113 224.593 228.284 221.125C228.437 218.645 227.744 217.891 225.162 217.936C215.174 218.097 205.187 217.998 195.199 217.998C175.89 217.998 156.581 218.043 137.281 217.945C134.78 217.945 133.934 218.546 134.06 221.107C134.243 224.915 134.219 228.729 133.988 232.534C133.815 235.7 132.429 238.678 130.118 240.852C127.806 243.026 124.746 244.23 121.571 244.214C113.941 244.291 106.308 244.291 98.6719 244.214C95.3816 244.168 92.2379 242.847 89.9044 240.53C87.5709 238.214 86.2301 235.083 86.1651 231.798C86.0661 227.881 86.1021 223.955 86.1651 220.038C86.1651 218.511 85.9851 217.567 84.1046 217.343C68.4486 215.465 55.3119 208.547 44.5956 197.111C44.2201 196.553 43.9177 195.949 43.6959 195.314C42.8899 196.467 42.5671 197.889 42.7961 199.276C42.7961 225.5 43.129 251.733 42.6521 277.948C42.3552 294.371 55.114 305.556 69.8972 304.9C81.2073 304.415 92.5624 304.81 103.9 304.81C104.682 304.81 105.474 304.81 106.257 304.81C109.784 304.918 112.051 306.984 111.988 310.021C111.925 313.058 109.856 314.926 106.383 314.935C94.146 314.989 81.9091 314.935 69.6813 314.935C65.9802 315.074 62.2771 314.723 58.668 313.893C42.8141 309.626 32.3858 295.817 32.3588 278.73C32.3108 247.124 32.3108 215.519 32.3588 183.913C32.3588 180.32 32.1428 176.807 30.6942 173.438C28.9666 169.431 28.8497 164.993 27.5 160.861L27.527 103.022ZM327.268 130.118C336.504 130.132 345.37 126.492 351.925 119.994C358.48 113.497 362.189 104.671 362.242 95.4485C362.199 86.2263 358.511 77.3939 351.98 70.8727C345.449 64.3516 336.603 60.6692 327.367 60.6267C318.128 60.6289 309.265 64.2822 302.715 70.7884C296.165 77.2946 292.46 86.1248 292.411 95.3496C292.42 104.574 296.097 113.417 302.633 119.936C309.169 126.456 318.029 130.118 327.268 130.118ZM181.064 85.638C197.89 85.638 214.715 85.5931 231.541 85.6829C233.853 85.6829 234.735 85.1169 234.591 82.7092C234.366 79.4669 234.366 76.2129 234.591 72.9706C234.825 70.0239 233.898 69.2333 230.902 69.2513C204.881 69.3771 178.85 69.3231 152.829 69.3231C145.541 69.3231 138.244 69.386 130.956 69.3231C129.066 69.3231 128.4 69.8442 128.472 71.7758C128.666 75.2439 128.666 78.72 128.472 82.1882C128.283 84.9372 129.057 85.7817 131.927 85.7817C148.303 85.5661 164.688 85.638 181.064 85.638ZM181.316 58.9826H200.211C210.648 58.9826 221.077 58.9826 231.514 58.9826C232.702 58.9826 234.402 59.6295 234.573 57.4374C235.077 50.7983 233.781 45.1114 224.55 45.1473C196.045 45.2731 167.549 45.1923 139.072 45.1923C131.352 45.1923 128.679 48.0132 128.535 55.7305C128.481 58.4256 129.309 59.0815 131.909 59.0635C148.33 58.9287 164.823 58.9826 181.316 58.9826ZM123.874 213.039C123.874 207.227 123.784 201.414 123.874 195.601C123.937 192.682 122.759 191.631 119.888 191.675C113.404 191.801 106.911 191.801 100.408 191.675C97.5652 191.613 96.2785 192.637 96.2965 195.53C96.3385 207.041 96.3385 218.555 96.2965 230.073C96.2965 232.894 97.5022 234.125 100.345 234.089C106.842 234.008 113.338 233.999 119.834 234.089C122.912 234.134 123.955 232.777 123.874 229.803C123.775 224.224 123.883 218.663 123.874 213.039ZM265.966 212.931C265.966 207.119 265.903 201.297 265.966 195.485C265.966 192.79 264.932 191.649 262.178 191.684C255.457 191.783 248.736 191.774 242.014 191.684C239.432 191.684 238.334 192.772 238.334 195.278C238.334 206.909 238.334 218.543 238.334 230.181C238.334 232.876 239.468 234.089 242.167 234.071C248.772 234.026 255.385 234.017 261.962 234.071C264.797 234.071 266.002 232.912 265.948 230.028C265.885 224.35 265.966 218.663 265.966 212.931Z" fill="#224982"/>
<path d="M181.343 125.23C189.081 125.23 196.819 125.23 204.566 125.23C212.16 125.23 217.037 129.902 217.244 137.448C217.379 142.479 217.388 147.528 217.244 152.568C217.019 159.917 212.16 164.652 204.764 164.688C189.054 164.76 173.347 164.76 157.643 164.688C150.166 164.688 145.406 159.953 145.28 152.595C145.19 147.331 145.163 142.057 145.28 136.802C145.46 130.001 150.265 125.311 157.103 125.239C165.183 125.23 173.263 125.23 181.343 125.23ZM181.001 154.275C188.505 154.275 196.009 154.168 203.495 154.338C206.195 154.401 206.968 153.44 206.851 150.861C206.671 146.738 206.716 142.587 206.851 138.455C206.923 136.298 206.177 135.463 203.981 135.472C188.745 135.526 173.512 135.526 158.282 135.472C156.086 135.472 155.357 136.325 155.42 138.482C155.555 142.722 155.573 146.98 155.42 151.23C155.33 153.584 156.158 154.356 158.489 154.32C165.984 154.248 173.488 154.311 181.001 154.311V154.275Z" fill="#224982"/>
<path d="M181.073 261.786C188.019 261.786 194.965 261.786 201.912 261.786C205.736 261.786 208.03 263.79 207.994 266.943C207.958 270.096 205.763 271.902 202.101 271.911C188.1 271.947 174.097 271.947 160.09 271.911C156.491 271.911 154.224 269.764 154.278 266.799C154.332 263.835 156.689 261.813 160.243 261.786C167.189 261.723 174.136 261.786 181.073 261.786Z" fill="#224982"/>
<path d="M181.442 241.626C188.163 241.626 194.884 241.626 201.606 241.626C205.691 241.626 208.039 243.63 207.994 246.882C207.994 249.99 205.727 251.913 201.75 251.931C188.085 251.985 174.418 251.985 160.747 251.931C156.716 251.931 154.206 249.775 154.287 246.693C154.368 243.612 156.878 241.626 160.945 241.617C167.774 241.608 174.604 241.626 181.442 241.626Z" fill="#224982"/>
<path d="M327.412 76.0341C330.273 76.0791 332.252 78.0106 332.477 81.1999C332.644 83.3199 332.644 85.4496 332.477 87.5695C332.279 89.8694 333.224 90.4803 335.348 90.3096C337.361 90.1928 339.38 90.1928 341.394 90.3096C344.696 90.4444 346.793 92.5197 346.793 95.5024C346.793 98.485 344.786 100.291 341.574 100.444C339.235 100.56 336.868 100.533 334.52 100.444C333.08 100.444 332.513 101.001 332.549 102.42C332.612 104.657 332.63 106.912 332.549 109.131C332.405 112.572 330.165 114.971 327.268 114.917C324.37 114.863 322.427 112.653 322.112 109.32C321.833 106.472 323.39 102.833 321.338 100.992C319.539 99.3205 315.94 100.659 313.24 100.461C309.947 100.228 307.743 98.1436 307.842 95.2957C307.941 92.4478 310.136 90.4624 313.456 90.2737C316.227 90.121 319.755 91.4596 321.554 89.7347C323.354 88.0097 321.959 84.4341 322.175 81.6491C322.427 77.9926 324.226 75.9892 327.412 76.0341Z" fill="#224982"/>
<path d="M115.174 213.084C115.174 214.881 115.291 216.678 115.174 218.475C115.138 219.773 114.595 221.007 113.66 221.91C112.725 222.814 111.472 223.315 110.171 223.308C107.391 223.146 105.366 221.592 105.159 218.816C104.831 214.81 104.831 210.784 105.159 206.777C105.411 204.082 107.364 202.438 110.297 202.555C113.23 202.672 114.868 204.244 115.111 207.092C115.282 209.086 115.111 211.108 115.111 213.12L115.174 213.084Z" fill="#224982"/>
<path d="M257.212 212.949C257.212 214.746 257.292 216.543 257.212 218.34C257.192 219.635 256.677 220.873 255.771 221.8C254.866 222.727 253.64 223.273 252.344 223.326C251.04 223.359 249.775 222.886 248.813 222.006C247.852 221.126 247.269 219.909 247.188 218.609C246.979 214.719 246.994 210.819 247.233 206.93C247.44 204.154 249.339 202.555 252.236 202.573C255.133 202.591 256.861 204.172 257.167 206.993C257.279 208.998 257.279 211.008 257.167 213.012L257.212 212.949Z" fill="#224982"/>
</svg>
