<svg width="28" height="32" viewBox="0 0 28 32" fill="none" xmlns="http://www.w3.org/2000/svg">
<path d="M15.125 20.9922C15.3584 20.7278 15.5 20.3804 15.5 20C15.5 19.1716 14.8284 18.5 14 18.5C13.1716 18.5 12.5 19.1716 12.5 20C12.5 20.3804 12.6416 20.7278 12.875 20.9922V26C12.875 26.6213 13.3787 27.125 14 27.125C14.6213 27.125 15.125 26.6213 15.125 26V20.9922Z" fill="#363538"/>
<path fill-rule="evenodd" clip-rule="evenodd" d="M6.875 11V8C6.875 4.06497 10.065 0.875 14 0.875C17.935 0.875 21.125 4.06497 21.125 8V11H21.5C24.8137 11 27.5 13.6863 27.5 17V26C27.5 29.3137 24.8137 32 21.5 32H6.5C3.18629 32 0.5 29.3137 0.5 26V17C0.5 13.6863 3.18629 11 6.5 11H6.875ZM9.125 8C9.125 5.30761 11.3076 3.125 14 3.125C16.6924 3.125 18.875 5.30761 18.875 8V11H9.125V8ZM2.75 17C2.75 14.9289 4.42893 13.25 6.5 13.25H21.5C23.5711 13.25 25.25 14.9289 25.25 17V26C25.25 28.0711 23.5711 29.75 21.5 29.75H6.5C4.42893 29.75 2.75 28.0711 2.75 26V17Z" fill="#363538"/>
</svg>
