<svg width="120" height="100" viewBox="0 0 120 100" fill="none" xmlns="http://www.w3.org/2000/svg">
<g clip-path="url(#clip0_1313_5755)" filter="url(#filter0_d_1313_5755)">
<path d="M12.8981 63.6289H11.1546C9.10348 63.6289 7.81947 63.818 7.26567 64.2086L7.18359 64.2661V64.3689C7.39281 67.9662 7.50771 72.7968 7.52822 78.7334V78.9184H12.9801C15.4866 78.9184 17.3942 78.2236 18.6577 76.8628C19.9212 75.502 20.5529 73.6478 20.5529 71.3744C20.5529 69.1009 19.9171 67.1974 18.6577 65.7832C17.3983 64.3689 15.462 63.6289 12.8981 63.6289ZM12.9842 76.4558H10.1126L10.1373 66.0956H12.8734C14.4856 66.0956 15.6999 66.5807 16.4793 67.5468C17.309 68.64 17.7299 69.99 17.669 71.362C17.669 73.4176 17.1932 74.9634 16.2496 75.9172C15.663 76.2749 14.5677 76.4558 12.9842 76.4558Z" fill="#224982"/>
<path d="M34.0115 68.1183C34.0115 65.1006 31.9603 63.5713 27.9565 63.5713C27.0078 63.5752 26.06 63.6329 25.1178 63.744C24.3918 63.7859 23.6779 63.9484 23.0051 64.225L22.8984 64.2784V64.3976C23.1077 67.8798 23.2225 72.7515 23.2389 78.8772V79.0375L23.3989 79.0622C23.7098 79.1101 24.0238 79.1348 24.3383 79.1362C24.8107 79.1452 25.2807 79.0672 25.7249 78.906L25.8438 78.8608V72.7516H27.6119L32.0013 79.0375H32.0629C32.5752 79.1363 33.0998 79.1544 33.6177 79.091C34.6678 79.0211 34.9632 78.8813 35.0945 78.7785L35.238 78.6634L30.4712 72.4966C32.8177 71.9951 34.0115 70.5027 34.0115 68.1183ZM25.852 66.1572C26.5501 66.0701 27.2531 66.0303 27.9565 66.038C28.7934 65.987 29.629 66.1556 30.381 66.5272C30.8978 66.8397 31.1522 67.3865 31.1522 68.2046C31.1639 68.5667 31.1032 68.9275 30.9736 69.2657C30.8439 69.604 30.648 69.9127 30.3974 70.1738C30.1471 70.2807 29.54 70.4 28.0714 70.4H25.852V66.1572Z" fill="#224982"/>
<path d="M39.1762 75.0703C38.3028 75.5629 37.4997 76.1713 36.7887 76.8792L36.6738 76.9943L38.6265 79.5967L41.2396 77.6562L39.3198 74.9922L39.1762 75.0703Z" fill="#224982"/>
<path d="M54.4744 64.4096L54.3924 64.4672V64.57C54.5196 66.6667 54.6303 70.0214 54.7205 74.5519L46.9262 63.5956H46.8278C45.9122 63.6106 45.0216 63.8967 44.268 64.4179L44.1777 64.4795V64.5864C44.4239 68.1837 44.5592 72.9773 44.588 78.8317V78.9879L44.7356 79.0167C45.4431 79.1542 46.1737 79.1118 46.8606 78.8933L46.9878 78.8522L47.0165 68.0439L55.18 79.4401V79.029C55.818 79.1247 56.4695 79.0712 57.0834 78.8728L57.2106 78.8317L57.2393 63.5874H57.0506C56.1276 63.5874 55.2274 63.8747 54.4744 64.4096Z" fill="#224982"/>
<path d="M69.8669 64.4057L69.7807 64.4674V64.5948C70.0269 68.1921 70.154 71.2837 70.154 73.7915C70.154 74.8563 69.871 75.6334 69.3336 76.102C68.7962 76.5707 67.8732 76.8174 66.663 76.8174C65.4528 76.8174 64.5298 76.5789 63.976 76.102C63.4222 75.6251 63.1556 74.8687 63.1556 73.7915V63.5958H62.9669C61.9907 63.5802 61.0335 63.8674 60.2266 64.4181L60.1445 64.4797V64.5948C60.3907 68.188 60.5548 71.3701 60.5548 74.0506C60.5548 77.5245 62.6058 79.2841 66.6671 79.2841C70.7283 79.2841 72.7385 77.5039 72.7385 74.0506L72.8246 63.6164H72.6359C71.6555 63.6008 70.6923 63.8754 69.8669 64.4057Z" fill="#224982"/>
<path d="M86.8045 68.1183C86.8045 65.1006 84.7533 63.5713 80.7536 63.5713C79.8035 63.5751 78.8544 63.6328 77.9107 63.744C77.1849 63.7868 76.4711 63.9493 75.7981 64.225L75.6914 64.2784V64.3976C75.9006 67.8798 76.0155 72.7515 76.036 78.8772V79.0375L76.1919 79.0622C76.5028 79.1099 76.8168 79.1347 77.1313 79.1362C77.6037 79.1452 78.0737 79.0672 78.5179 78.906L78.6369 78.8608V72.7516H80.3885L84.7779 79.0375H84.8395C85.3518 79.1361 85.8764 79.1541 86.3942 79.091C87.4485 79.0211 87.7398 78.8813 87.8711 78.7785L88.0187 78.6634L83.2478 72.4966C85.6107 71.9951 86.8045 70.5027 86.8045 68.1183ZM78.6451 66.1572C79.3444 66.07 80.0489 66.0302 80.7536 66.038C81.5892 65.987 82.4235 66.1556 83.1739 66.5272C83.6949 66.8397 83.9452 67.3865 83.9452 68.2046C83.9569 68.5667 83.8962 68.9275 83.7665 69.2657C83.6369 69.604 83.441 69.9127 83.1904 70.1738C82.9442 70.2807 82.333 70.4 80.8644 70.4H78.6451V66.1572Z" fill="#224982"/>
<path d="M98.5319 71.5839C98.1486 71.2714 97.7366 70.996 97.3013 70.7617C96.8154 70.5228 96.3153 70.3141 95.8039 70.1368L93.7528 69.3885C92.5795 68.9774 92.0134 68.3402 92.0134 67.4974C91.9964 67.0401 92.1321 66.5901 92.3991 66.2188C93.0292 66.0223 93.6883 65.9361 94.3477 65.9639C95.7187 65.9141 97.0749 66.2625 98.253 66.9671L98.3843 67.0493L98.4909 66.9342C99.0019 66.3119 99.2907 65.5363 99.3114 64.7306V64.6196L99.217 64.5579C98.1053 63.8549 96.5587 63.4972 94.6225 63.4972C93.3064 63.473 92.0124 63.8376 90.9017 64.5456C90.3798 64.8704 89.953 65.328 89.6648 65.8717C89.3766 66.4155 89.2372 67.026 89.2608 67.6413C89.2321 68.1443 89.3028 68.6481 89.4689 69.1236C89.635 69.5991 89.8934 70.0371 90.229 70.4122C90.95 71.119 91.8269 71.6458 92.7888 71.9498L94.6225 72.6076C95.3441 72.8148 96.0129 73.1751 96.5834 73.6642C96.9005 74.0187 97.0669 74.4835 97.0469 74.9592C97.0606 75.4415 96.9165 75.915 96.6367 76.3077C96.1813 76.5667 95.2994 76.6941 94.0153 76.6941C92.563 76.7428 91.127 76.3748 89.8762 75.6334L89.7736 75.5676L89.6752 75.6375C89.3746 75.9208 89.1647 76.2871 89.0721 76.69C88.9093 77.1094 88.8137 77.5521 88.7891 78.0015V78.1042L88.8793 78.1577C90.0649 78.9018 91.7509 79.2759 93.843 79.2759C94.8157 79.2891 95.7845 79.1504 96.7146 78.8648C97.5826 78.5873 98.3557 78.0718 98.9463 77.3766C99.5755 76.6189 99.9067 75.6568 99.8775 74.6714C99.8867 74.0674 99.7751 73.4677 99.5493 72.9077C99.3283 72.3868 98.9781 71.9311 98.5319 71.5839Z" fill="#224982"/>
<path d="M112.604 76.5417L112.55 76.4554H105.101V72.5498H111.73L111.779 72.447C111.929 72.0786 111.991 71.6802 111.96 71.2835C111.975 70.9091 111.913 70.5356 111.779 70.1858L111.73 70.0831H105.101L105.129 66.1816H112.587L112.641 66.0788C112.786 65.7093 112.847 65.3115 112.817 64.9153C112.831 64.5413 112.771 64.1682 112.641 63.8176L112.587 63.7148H106.147C104.096 63.7148 102.832 63.9122 102.258 64.3233L102.176 64.3809V64.4836C102.381 68.0809 102.5 72.8746 102.516 78.733V78.918H112.546L112.6 78.8234C112.767 78.4526 112.839 78.0454 112.809 77.6394C112.829 77.2623 112.759 76.8859 112.604 76.5417Z" fill="#224982"/>
<path d="M66.7491 34.4558C66.5004 39.411 64.304 44.0658 60.6402 47.4024C56.9764 50.7391 52.1432 52.4861 47.1977 52.2614C42.2555 52.009 37.6139 49.8064 34.2871 46.135C30.9603 42.4636 29.2188 37.6217 29.4431 32.6675" stroke="#3AC0E5" stroke-width="6" stroke-miterlimit="10" stroke-linecap="round"/>
<path d="M90.5791 34.4558C90.3304 39.411 88.134 44.0658 84.4702 47.4024C80.8064 50.7391 75.9733 52.4861 71.0277 52.2614C66.0855 52.009 61.444 49.8064 58.1172 46.135C54.7904 42.4636 53.0489 37.6217 53.2732 32.6675" stroke="#3AC0E5" stroke-width="6" stroke-miterlimit="10" stroke-linecap="round"/>
<path d="M60.0087 33.2552C68.3937 33.2552 75.1911 26.443 75.1911 18.0397C75.1911 9.63642 68.3937 2.82422 60.0087 2.82422C51.6236 2.82422 44.8262 9.63642 44.8262 18.0397C44.8262 26.443 51.6236 33.2552 60.0087 33.2552Z" stroke="#224982" stroke-width="5" stroke-miterlimit="10"/>
<path d="M68.0116 12.539C67.4628 11.9996 66.7233 11.6998 65.9546 11.7051C65.1859 11.7105 64.4505 12.0207 63.9093 12.5678L59.3148 17.2381L57.6739 15.5237C57.4076 15.2472 57.0892 15.0263 56.7371 14.8739C56.385 14.7214 56.0063 14.6405 55.6228 14.6357H55.594C54.8289 14.6283 54.0919 14.9238 53.5429 15.458L53.5101 15.4909C52.9629 16.0352 52.6518 16.7738 52.6445 17.5464C52.6439 17.929 52.7195 18.3078 52.8667 18.6608C53.0139 19.0137 53.2298 19.3337 53.5019 19.602L57.0257 23.1294C57.6342 23.7385 58.459 24.0806 59.3189 24.0806C60.1789 24.0806 61.0036 23.7385 61.6121 23.1294L68.0814 16.642C68.3519 16.373 68.5664 16.0527 68.7122 15.6997C68.858 15.3468 68.9322 14.9684 68.9305 14.5864C68.9193 14.2013 68.8324 13.8223 68.6747 13.4709C68.517 13.1196 68.2917 12.8029 68.0116 12.539Z" fill="#3AC0E5"/>
<path d="M5.81322 85.1508H4V84.5054H8.38535V85.1508H6.57623V90.4953H5.81322V85.1508Z" fill="#3AC0E5"/>
<path d="M12.1521 84.4849H13.0136L15.0401 90.4872H14.2197L13.1736 87.1366C12.9603 86.4623 12.7633 85.8046 12.5746 85.1139H12.5377C12.3531 85.8087 12.1603 86.4623 11.9429 87.1366L10.8886 90.4872H10.1133L12.1521 84.4849ZM11.1922 88.0493H13.9489V88.6577H11.2045L11.1922 88.0493Z" fill="#3AC0E5"/>
<path d="M17.6738 84.4849H18.4368V89.8294H21.05V90.4954H17.6738V84.4849Z" fill="#3AC0E5"/>
<path d="M23.9199 84.4849H27.3699V85.1509H24.6829V87.0338H26.9515V87.6793H24.6829V89.8623H27.4643V90.4954H23.9199V84.4849Z" fill="#3AC0E5"/>
<path d="M30.5703 84.4848H31.358L33.5281 88.2589L34.1762 89.4922H34.2131C34.1721 88.8879 34.1147 88.2095 34.1147 87.5846V84.4766H34.8367V90.4953H34.049L31.8831 86.7172L31.2349 85.4838H31.198C31.239 86.0923 31.2964 86.7172 31.2964 87.3585V90.4953H30.5703V84.4848Z" fill="#3AC0E5"/>
<path d="M39.5495 85.1508H37.7363V84.5054H42.1257V85.1508H40.3289V90.4953H39.5659L39.5495 85.1508Z" fill="#3AC0E5"/>
<path d="M49.904 84.4849H50.7655L52.7921 90.4872H51.9716L50.9296 87.1366C50.7122 86.4623 50.5194 85.8046 50.3266 85.1139H50.2938C50.1051 85.8087 49.9123 86.4623 49.6989 87.1366L48.6406 90.4872H47.8652L49.904 84.4849ZM48.9441 88.0493H51.7049V88.6577H48.9441V88.0493Z" fill="#3AC0E5"/>
<path d="M55.0273 87.4898C55.0273 85.5534 56.1637 84.3735 57.6857 84.3735C57.9955 84.3755 58.3015 84.4423 58.5841 84.5698C58.8667 84.6972 59.1196 84.8824 59.3266 85.1136L58.9163 85.611C58.7629 85.4348 58.5738 85.2935 58.3616 85.1964C58.1494 85.0993 57.9189 85.0486 57.6857 85.0478C56.5534 85.0478 55.8027 85.9769 55.8027 87.4693C55.8027 88.9616 56.5206 89.936 57.6569 89.936C57.9235 89.9337 58.1862 89.872 58.426 89.7554C58.6658 89.6388 58.8767 89.4702 59.0435 89.2617L59.4537 89.7386C59.2338 90.0143 58.9538 90.2358 58.6353 90.3861C58.3167 90.5365 57.968 90.6118 57.6159 90.6061C56.1432 90.5979 55.0273 89.4426 55.0273 87.4898Z" fill="#3AC0E5"/>
<path d="M61.8008 87.4652C61.8008 85.5411 62.8551 84.3735 64.3606 84.3735C65.8661 84.3735 66.9204 85.5452 66.9204 87.4652C66.9204 89.3851 65.8661 90.5979 64.3606 90.5979C62.8551 90.5979 61.8008 89.3892 61.8008 87.4652ZM66.1328 87.4652C66.1328 85.9687 65.4313 85.0478 64.3606 85.0478C63.2899 85.0478 62.5884 85.9687 62.5884 87.4652C62.5884 88.9616 63.2899 89.9647 64.3606 89.9647C65.4313 89.9647 66.1328 88.9945 66.1328 87.4652ZM63.9463 90.4663L64.738 90.4088C64.8612 90.7098 65.0765 90.9639 65.3529 91.1346C65.6293 91.3053 65.9527 91.3836 66.2764 91.3584C66.4886 91.3596 66.6999 91.3305 66.904 91.2721L67.0517 91.86C66.7761 91.9557 66.486 92.003 66.1943 91.9998C65.7055 92.0173 65.2239 91.878 64.8196 91.6022C64.4153 91.3264 64.1093 90.9285 63.9463 90.4663Z" fill="#3AC0E5"/>
<path d="M70.0098 88.0287V84.5054H70.7728V88.0287C70.7728 89.4717 71.3799 89.9281 72.1635 89.9281C72.947 89.9281 73.5829 89.4717 73.5829 88.0287V84.4849H74.313V88.0287C74.313 89.9568 73.3859 90.6188 72.1635 90.6188C70.941 90.6188 70.0098 89.9363 70.0098 88.0287Z" fill="#3AC0E5"/>
<path d="M77.7461 84.4849H78.5091V90.4954H77.7461V84.4849Z" fill="#3AC0E5"/>
<path d="M81.541 89.7057L81.9964 89.1836C82.2072 89.4102 82.4608 89.5927 82.7425 89.7204C83.0242 89.8481 83.3282 89.9186 83.6373 89.9277C84.4249 89.9277 84.8885 89.5166 84.8885 88.9493C84.8885 88.3819 84.4536 88.1271 83.8916 87.8927L83.0301 87.5145C82.4722 87.276 81.7995 86.8526 81.7995 85.9687C81.7995 85.0848 82.5953 84.3735 83.6865 84.3735C84.0152 84.3732 84.3406 84.4389 84.6436 84.5667C84.9466 84.6946 85.2209 84.8819 85.4505 85.1177L85.0403 85.6069C84.8619 85.4286 84.65 85.2875 84.417 85.1915C84.184 85.0956 83.9344 85.0467 83.6824 85.0478C83.0097 85.0478 82.5666 85.3849 82.5666 85.9235C82.5666 86.462 83.0876 86.7169 83.5552 86.9143L84.4085 87.2883C85.1018 87.5844 85.6392 87.9996 85.6392 88.8917C85.6392 89.7838 84.8597 90.5979 83.588 90.5979C83.2047 90.5936 82.8261 90.5125 82.4745 90.3593C82.1229 90.2061 81.8055 89.9838 81.541 89.7057Z" fill="#3AC0E5"/>
<path d="M88.6758 84.4849H89.4388V90.4954H88.6758V84.4849Z" fill="#3AC0E5"/>
<path d="M94.147 85.1508H92.3379V84.5054H96.7232V85.1508H94.91V90.4953H94.147V85.1508Z" fill="#3AC0E5"/>
<path d="M99.6191 84.4849H100.382V90.4954H99.6191V84.4849Z" fill="#3AC0E5"/>
<path d="M103.504 87.4652C103.504 85.5411 104.558 84.3735 106.064 84.3735C107.569 84.3735 108.624 85.5452 108.624 87.4652C108.624 89.3851 107.569 90.5979 106.064 90.5979C104.558 90.5979 103.504 89.3892 103.504 87.4652ZM107.836 87.4652C107.836 85.9687 107.13 85.0478 106.064 85.0478C104.997 85.0478 104.287 85.9687 104.287 87.4652C104.287 88.9616 104.993 89.9319 106.064 89.9319C107.134 89.9319 107.832 88.9616 107.832 87.4652H107.836Z" fill="#3AC0E5"/>
<path d="M111.734 84.4848H112.53L114.696 88.2589L115.344 89.4922H115.381C115.344 88.8879 115.283 88.2095 115.283 87.5846V84.4766H116.009V90.4953H115.221L113.051 86.7172L112.407 85.4838H112.37C112.407 86.0923 112.465 86.7172 112.465 87.3585V90.4953H111.743L111.734 84.4848Z" fill="#3AC0E5"/>
</g>
<defs>
<filter id="filter0_d_1313_5755" x="0" y="0" width="120" height="100" filterUnits="userSpaceOnUse" color-interpolation-filters="sRGB">
<feFlood flood-opacity="0" result="BackgroundImageFix"/>
<feColorMatrix in="SourceAlpha" type="matrix" values="0 0 0 0 0 0 0 0 0 0 0 0 0 0 0 0 0 0 127 0" result="hardAlpha"/>
<feOffset dy="4"/>
<feGaussianBlur stdDeviation="2"/>
<feComposite in2="hardAlpha" operator="out"/>
<feColorMatrix type="matrix" values="0 0 0 0 0 0 0 0 0 0 0 0 0 0 0 0 0 0 0.25 0"/>
<feBlend mode="normal" in2="BackgroundImageFix" result="effect1_dropShadow_1313_5755"/>
<feBlend mode="normal" in="SourceGraphic" in2="effect1_dropShadow_1313_5755" result="shape"/>
</filter>
<clipPath id="clip0_1313_5755">
<rect width="112" height="92" fill="white" transform="translate(4)"/>
</clipPath>
</defs>
</svg>
