<svg width="112" height="92" viewBox="0 0 112 92" fill="none" xmlns="http://www.w3.org/2000/svg">
<g clip-path="url(#clip0_1209_7772)">
<path d="M8.89807 63.6289H7.15461C5.10348 63.6289 3.81947 63.818 3.26567 64.2086L3.18359 64.2661V64.3689C3.39281 67.9662 3.50771 72.7968 3.52822 78.7334V78.9184H8.98009C11.4866 78.9184 13.3942 78.2236 14.6577 76.8628C15.9212 75.502 16.5529 73.6478 16.5529 71.3744C16.5529 69.1009 15.9171 67.1974 14.6577 65.7832C13.3983 64.3689 11.462 63.6289 8.89807 63.6289ZM8.9842 76.4558H6.11262L6.13725 66.0956H8.87343C10.4856 66.0956 11.6999 66.5807 12.4793 67.5468C13.309 68.64 13.7299 69.99 13.669 71.362C13.669 73.4176 13.1932 74.9634 12.2496 75.9172C11.663 76.2749 10.5677 76.4558 8.9842 76.4558Z" fill="white"/>
<path d="M30.0115 68.1183C30.0115 65.1006 27.9603 63.5713 23.9565 63.5713C23.0078 63.5752 22.06 63.6329 21.1178 63.744C20.3918 63.7859 19.6779 63.9484 19.0051 64.225L18.8984 64.2784V64.3976C19.1077 67.8798 19.2225 72.7515 19.2389 78.8772V79.0375L19.3989 79.0622C19.7098 79.1101 20.0238 79.1348 20.3383 79.1362C20.8107 79.1452 21.2807 79.0672 21.7249 78.906L21.8438 78.8608V72.7516H23.6119L28.0013 79.0375H28.0629C28.5752 79.1363 29.0998 79.1544 29.6177 79.091C30.6678 79.0211 30.9632 78.8813 31.0945 78.7785L31.238 78.6634L26.4712 72.4966C28.8177 71.9951 30.0115 70.5027 30.0115 68.1183ZM21.852 66.1572C22.5501 66.0701 23.2531 66.0303 23.9565 66.038C24.7934 65.987 25.629 66.1556 26.381 66.5272C26.8978 66.8397 27.1522 67.3865 27.1522 68.2046C27.1639 68.5667 27.1032 68.9275 26.9736 69.2657C26.8439 69.604 26.648 69.9127 26.3974 70.1738C26.1471 70.2807 25.54 70.4 24.0714 70.4H21.852V66.1572Z" fill="white"/>
<path d="M35.1762 75.0703C34.3028 75.5629 33.4997 76.1713 32.7887 76.8792L32.6738 76.9943L34.6265 79.5967L37.2396 77.6562L35.3198 74.9922L35.1762 75.0703Z" fill="white"/>
<path d="M50.4744 64.4096L50.3924 64.4672V64.57C50.5196 66.6667 50.6303 70.0214 50.7205 74.5519L42.9262 63.5956H42.8278C41.9122 63.6106 41.0216 63.8967 40.268 64.4179L40.1777 64.4795V64.5864C40.4239 68.1837 40.5592 72.9773 40.588 78.8317V78.9879L40.7356 79.0167C41.4431 79.1542 42.1737 79.1118 42.8606 78.8933L42.9878 78.8522L43.0165 68.0439L51.18 79.4401V79.029C51.818 79.1247 52.4695 79.0712 53.0834 78.8728L53.2106 78.8317L53.2393 63.5874H53.0506C52.1276 63.5874 51.2274 63.8747 50.4744 64.4096Z" fill="white"/>
<path d="M65.8669 64.4057L65.7807 64.4674V64.5948C66.0269 68.1921 66.154 71.2837 66.154 73.7915C66.154 74.8563 65.871 75.6334 65.3336 76.102C64.7962 76.5707 63.8732 76.8174 62.663 76.8174C61.4528 76.8174 60.5298 76.5789 59.976 76.102C59.4222 75.6251 59.1556 74.8687 59.1556 73.7915V63.5958H58.9669C57.9907 63.5802 57.0335 63.8674 56.2266 64.4181L56.1445 64.4797V64.5948C56.3907 68.188 56.5548 71.3701 56.5548 74.0506C56.5548 77.5245 58.6058 79.2841 62.6671 79.2841C66.7283 79.2841 68.7385 77.5039 68.7385 74.0506L68.8246 63.6164H68.6359C67.6555 63.6008 66.6923 63.8754 65.8669 64.4057Z" fill="white"/>
<path d="M82.8045 68.1183C82.8045 65.1006 80.7533 63.5713 76.7536 63.5713C75.8035 63.5751 74.8544 63.6328 73.9107 63.744C73.1849 63.7868 72.4711 63.9493 71.7981 64.225L71.6914 64.2784V64.3976C71.9006 67.8798 72.0155 72.7515 72.036 78.8772V79.0375L72.1919 79.0622C72.5028 79.1099 72.8168 79.1347 73.1313 79.1362C73.6037 79.1452 74.0737 79.0672 74.5179 78.906L74.6369 78.8608V72.7516H76.3885L80.7779 79.0375H80.8395C81.3518 79.1361 81.8764 79.1541 82.3942 79.091C83.4485 79.0211 83.7398 78.8813 83.8711 78.7785L84.0187 78.6634L79.2478 72.4966C81.6107 71.9951 82.8045 70.5027 82.8045 68.1183ZM74.6451 66.1572C75.3444 66.07 76.0489 66.0302 76.7536 66.038C77.5892 65.987 78.4235 66.1556 79.1739 66.5272C79.6949 66.8397 79.9452 67.3865 79.9452 68.2046C79.9569 68.5667 79.8962 68.9275 79.7665 69.2657C79.6369 69.604 79.441 69.9127 79.1904 70.1738C78.9442 70.2807 78.333 70.4 76.8644 70.4H74.6451V66.1572Z" fill="white"/>
<path d="M94.5319 71.5839C94.1486 71.2714 93.7366 70.996 93.3013 70.7617C92.8154 70.5228 92.3153 70.3141 91.8039 70.1368L89.7528 69.3885C88.5795 68.9774 88.0134 68.3402 88.0134 67.4974C87.9964 67.0401 88.1321 66.5901 88.3991 66.2188C89.0292 66.0223 89.6883 65.9361 90.3477 65.9639C91.7187 65.9141 93.0749 66.2625 94.253 66.9671L94.3843 67.0493L94.4909 66.9342C95.0019 66.3119 95.2907 65.5363 95.3114 64.7306V64.6196L95.217 64.5579C94.1053 63.8549 92.5587 63.4972 90.6225 63.4972C89.3064 63.473 88.0124 63.8376 86.9017 64.5456C86.3798 64.8704 85.953 65.328 85.6648 65.8717C85.3766 66.4155 85.2372 67.026 85.2608 67.6413C85.2321 68.1443 85.3028 68.6481 85.4689 69.1236C85.635 69.5991 85.8934 70.0371 86.229 70.4122C86.95 71.119 87.8269 71.6458 88.7888 71.9498L90.6225 72.6076C91.3441 72.8148 92.0129 73.1751 92.5834 73.6642C92.9005 74.0187 93.0669 74.4835 93.0469 74.9592C93.0606 75.4415 92.9165 75.915 92.6367 76.3077C92.1813 76.5667 91.2994 76.6941 90.0153 76.6941C88.563 76.7428 87.127 76.3748 85.8762 75.6334L85.7736 75.5676L85.6752 75.6375C85.3746 75.9208 85.1647 76.2871 85.0721 76.69C84.9093 77.1094 84.8137 77.5521 84.7891 78.0015V78.1042L84.8793 78.1577C86.0649 78.9018 87.7509 79.2759 89.843 79.2759C90.8157 79.2891 91.7845 79.1504 92.7146 78.8648C93.5826 78.5873 94.3557 78.0718 94.9463 77.3766C95.5755 76.6189 95.9067 75.6568 95.8775 74.6714C95.8867 74.0674 95.7751 73.4677 95.5493 72.9077C95.3283 72.3868 94.9781 71.9311 94.5319 71.5839Z" fill="white"/>
<path d="M108.604 76.5417L108.55 76.4554H101.101V72.5498H107.73L107.779 72.447C107.929 72.0786 107.991 71.6802 107.96 71.2835C107.975 70.9091 107.913 70.5356 107.779 70.1858L107.73 70.0831H101.101L101.129 66.1816H108.587L108.641 66.0788C108.786 65.7093 108.847 65.3115 108.817 64.9153C108.831 64.5413 108.771 64.1682 108.641 63.8176L108.587 63.7148H102.147C100.096 63.7148 98.8321 63.9122 98.2578 64.3233L98.1758 64.3809V64.4836C98.3809 68.0809 98.4998 72.8746 98.5163 78.733V78.918H108.546L108.6 78.8234C108.767 78.4526 108.839 78.0454 108.809 77.6394C108.829 77.2623 108.759 76.8859 108.604 76.5417Z" fill="white"/>
<path d="M62.7491 34.4558C62.5004 39.411 60.304 44.0658 56.6402 47.4024C52.9764 50.7391 48.1432 52.4861 43.1977 52.2614C38.2555 52.009 33.6139 49.8064 30.2871 46.135C26.9603 42.4636 25.2188 37.6217 25.4431 32.6675" stroke="#3AC0E5" stroke-width="6" stroke-miterlimit="10" stroke-linecap="round"/>
<path d="M86.5791 34.4558C86.3304 39.411 84.134 44.0658 80.4702 47.4024C76.8064 50.7391 71.9733 52.4861 67.0277 52.2614C62.0855 52.009 57.444 49.8064 54.1172 46.135C50.7904 42.4636 49.0489 37.6217 49.2732 32.6675" stroke="#3AC0E5" stroke-width="6" stroke-miterlimit="10" stroke-linecap="round"/>
<path d="M56.0087 33.2552C64.3937 33.2552 71.1911 26.443 71.1911 18.0397C71.1911 9.63642 64.3937 2.82422 56.0087 2.82422C47.6236 2.82422 40.8262 9.63642 40.8262 18.0397C40.8262 26.443 47.6236 33.2552 56.0087 33.2552Z" stroke="white" stroke-width="6" stroke-miterlimit="10"/>
<path d="M64.0116 12.539C63.4628 11.9996 62.7233 11.6998 61.9546 11.7051C61.1859 11.7105 60.4505 12.0207 59.9093 12.5678L55.3148 17.2381L53.6739 15.5237C53.4076 15.2472 53.0892 15.0263 52.7371 14.8739C52.385 14.7214 52.0063 14.6405 51.6228 14.6357H51.594C50.8289 14.6283 50.0919 14.9238 49.5429 15.458L49.5101 15.4909C48.9629 16.0352 48.6518 16.7738 48.6445 17.5464C48.6439 17.929 48.7195 18.3078 48.8667 18.6608C49.0139 19.0137 49.2298 19.3337 49.5019 19.602L53.0257 23.1294C53.6342 23.7385 54.459 24.0806 55.3189 24.0806C56.1789 24.0806 57.0036 23.7385 57.6121 23.1294L64.0814 16.642C64.3519 16.373 64.5664 16.0527 64.7122 15.6997C64.858 15.3468 64.9322 14.9684 64.9305 14.5864C64.9193 14.2013 64.8324 13.8223 64.6747 13.4709C64.517 13.1196 64.2917 12.8029 64.0116 12.539Z" fill="#3AC0E5"/>
<path d="M1.81322 85.1508H0V84.5054H4.38535V85.1508H2.57623V90.4953H1.81322V85.1508Z" fill="#3AC0E5"/>
<path d="M8.15214 84.4849H9.01361L11.0401 90.4872H10.2197L9.1736 87.1366C8.96029 86.4623 8.76334 85.8046 8.57464 85.1139H8.53773C8.35313 85.8087 8.16034 86.4623 7.94292 87.1366L6.88862 90.4872H6.11328L8.15214 84.4849ZM7.19218 88.0493H9.94889V88.6577H7.2045L7.19218 88.0493Z" fill="#3AC0E5"/>
<path d="M13.6738 84.4849H14.4368V89.8294H17.05V90.4954H13.6738V84.4849Z" fill="#3AC0E5"/>
<path d="M19.9199 84.4849H23.3699V85.1509H20.6829V87.0338H22.9515V87.6793H20.6829V89.8623H23.4643V90.4954H19.9199V84.4849Z" fill="#3AC0E5"/>
<path d="M26.5703 84.4848H27.358L29.5281 88.2589L30.1762 89.4922H30.2131C30.1721 88.8879 30.1147 88.2095 30.1147 87.5846V84.4766H30.8367V90.4953H30.049L27.8831 86.7172L27.2349 85.4838H27.198C27.239 86.0923 27.2964 86.7172 27.2964 87.3585V90.4953H26.5703V84.4848Z" fill="#3AC0E5"/>
<path d="M35.5495 85.1508H33.7363V84.5054H38.1257V85.1508H36.3289V90.4953H35.5659L35.5495 85.1508Z" fill="#3AC0E5"/>
<path d="M45.904 84.4849H46.7655L48.7921 90.4872H47.9716L46.9296 87.1366C46.7122 86.4623 46.5194 85.8046 46.3266 85.1139H46.2938C46.1051 85.8087 45.9123 86.4623 45.6989 87.1366L44.6406 90.4872H43.8652L45.904 84.4849ZM44.9441 88.0493H47.7049V88.6577H44.9441V88.0493Z" fill="#3AC0E5"/>
<path d="M51.0273 87.4898C51.0273 85.5534 52.1637 84.3735 53.6857 84.3735C53.9955 84.3755 54.3015 84.4423 54.5841 84.5698C54.8667 84.6972 55.1196 84.8824 55.3266 85.1136L54.9163 85.611C54.7629 85.4348 54.5738 85.2935 54.3616 85.1964C54.1494 85.0993 53.9189 85.0486 53.6857 85.0478C52.5534 85.0478 51.8027 85.9769 51.8027 87.4693C51.8027 88.9616 52.5206 89.936 53.6569 89.936C53.9235 89.9337 54.1862 89.872 54.426 89.7554C54.6658 89.6388 54.8767 89.4702 55.0435 89.2617L55.4537 89.7386C55.2338 90.0143 54.9538 90.2358 54.6353 90.3861C54.3167 90.5365 53.968 90.6118 53.6159 90.6061C52.1432 90.5979 51.0273 89.4426 51.0273 87.4898Z" fill="#3AC0E5"/>
<path d="M57.8008 87.4652C57.8008 85.5411 58.8551 84.3735 60.3606 84.3735C61.8661 84.3735 62.9204 85.5452 62.9204 87.4652C62.9204 89.3851 61.8661 90.5979 60.3606 90.5979C58.8551 90.5979 57.8008 89.3892 57.8008 87.4652ZM62.1328 87.4652C62.1328 85.9687 61.4313 85.0478 60.3606 85.0478C59.2899 85.0478 58.5884 85.9687 58.5884 87.4652C58.5884 88.9616 59.2899 89.9647 60.3606 89.9647C61.4313 89.9647 62.1328 88.9945 62.1328 87.4652ZM59.9463 90.4663L60.738 90.4088C60.8612 90.7098 61.0765 90.9639 61.3529 91.1346C61.6293 91.3053 61.9527 91.3836 62.2764 91.3584C62.4886 91.3596 62.6999 91.3305 62.904 91.2721L63.0517 91.86C62.7761 91.9557 62.486 92.003 62.1943 91.9998C61.7055 92.0173 61.2239 91.878 60.8196 91.6022C60.4153 91.3264 60.1093 90.9285 59.9463 90.4663Z" fill="#3AC0E5"/>
<path d="M66.0098 88.0287V84.5054H66.7728V88.0287C66.7728 89.4717 67.3799 89.9281 68.1635 89.9281C68.947 89.9281 69.5829 89.4717 69.5829 88.0287V84.4849H70.313V88.0287C70.313 89.9568 69.3859 90.6188 68.1635 90.6188C66.941 90.6188 66.0098 89.9363 66.0098 88.0287Z" fill="#3AC0E5"/>
<path d="M73.7461 84.4849H74.5091V90.4954H73.7461V84.4849Z" fill="#3AC0E5"/>
<path d="M77.541 89.7057L77.9964 89.1836C78.2072 89.4102 78.4608 89.5927 78.7425 89.7204C79.0242 89.8481 79.3282 89.9186 79.6373 89.9277C80.4249 89.9277 80.8885 89.5166 80.8885 88.9493C80.8885 88.3819 80.4536 88.1271 79.8916 87.8927L79.0301 87.5145C78.4722 87.276 77.7995 86.8526 77.7995 85.9687C77.7995 85.0848 78.5953 84.3735 79.6865 84.3735C80.0152 84.3732 80.3406 84.4389 80.6436 84.5667C80.9466 84.6946 81.2209 84.8819 81.4505 85.1177L81.0403 85.6069C80.8619 85.4286 80.65 85.2875 80.417 85.1915C80.184 85.0956 79.9344 85.0467 79.6824 85.0478C79.0097 85.0478 78.5666 85.3849 78.5666 85.9235C78.5666 86.462 79.0876 86.7169 79.5552 86.9143L80.4085 87.2883C81.1018 87.5844 81.6392 87.9996 81.6392 88.8917C81.6392 89.7838 80.8597 90.5979 79.588 90.5979C79.2047 90.5936 78.8261 90.5125 78.4745 90.3593C78.1229 90.2061 77.8055 89.9838 77.541 89.7057Z" fill="#3AC0E5"/>
<path d="M84.6758 84.4849H85.4388V90.4954H84.6758V84.4849Z" fill="#3AC0E5"/>
<path d="M90.147 85.1508H88.3379V84.5054H92.7232V85.1508H90.91V90.4953H90.147V85.1508Z" fill="#3AC0E5"/>
<path d="M95.6191 84.4849H96.3822V90.4954H95.6191V84.4849Z" fill="#3AC0E5"/>
<path d="M99.5039 87.4652C99.5039 85.5411 100.558 84.3735 102.064 84.3735C103.569 84.3735 104.624 85.5452 104.624 87.4652C104.624 89.3851 103.569 90.5979 102.064 90.5979C100.558 90.5979 99.5039 89.3892 99.5039 87.4652ZM103.836 87.4652C103.836 85.9687 103.13 85.0478 102.064 85.0478C100.997 85.0478 100.287 85.9687 100.287 87.4652C100.287 88.9616 100.993 89.9319 102.064 89.9319C103.134 89.9319 103.832 88.9616 103.832 87.4652H103.836Z" fill="#3AC0E5"/>
<path d="M107.734 84.4848H108.53L110.696 88.2589L111.344 89.4922H111.381C111.344 88.8879 111.283 88.2095 111.283 87.5846V84.4766H112.009V90.4953H111.221L109.051 86.7172L108.407 85.4838H108.37C108.407 86.0923 108.465 86.7172 108.465 87.3585V90.4953H107.743L107.734 84.4848Z" fill="#3AC0E5"/>
</g>
<defs>
<clipPath id="clip0_1209_7772">
<rect width="112" height="92" fill="white"/>
</clipPath>
</defs>
</svg>
