<svg width="28" height="26" viewBox="0 0 28 26" fill="none" xmlns="http://www.w3.org/2000/svg">
<path d="M7.17119 15.475C6.75625 15.06 6.75625 14.3873 7.17119 13.9724L8.39087 12.7527C8.8058 12.3377 9.47854 12.3377 9.89347 12.7527L11.1132 13.9724C11.5281 14.3873 11.5281 15.06 11.1132 15.475C10.9446 15.6435 10.7335 15.7436 10.5145 15.7752C11.0994 17.1323 12.4491 18.0824 14.0207 18.0824C15.0052 18.0824 15.9005 17.711 16.578 17.0989C17.0134 16.7055 17.6853 16.7396 18.0786 17.175C18.472 17.6104 18.4379 18.2823 18.0025 18.6757C16.9497 19.6269 15.5518 20.2074 14.0207 20.2074C11.245 20.2074 8.91379 18.3038 8.26143 15.7309C7.89119 15.8552 7.46608 15.7699 7.17119 15.475Z" fill="#363538"/>
<path d="M20.8275 13.0575C21.2424 13.4725 21.2424 14.1452 20.8275 14.5601L19.6078 15.7798C19.1929 16.1948 18.5202 16.1948 18.1052 15.7798L16.8855 14.5601C16.4706 14.1452 16.4706 13.4725 16.8855 13.0575C17.0541 12.889 17.2653 12.7889 17.4844 12.7573C16.8996 11.4 15.5497 10.4498 13.978 10.4498C13.0269 10.4498 12.1594 10.7963 11.4909 11.3714C11.046 11.7541 10.3752 11.7036 9.99253 11.2588C9.60986 10.8139 9.66027 10.1431 10.1051 9.76041C11.1446 8.86627 12.4994 8.32477 13.978 8.32477C16.7539 8.32477 19.0851 10.2285 19.7373 12.8016C20.1076 12.6773 20.5326 12.7627 20.8275 13.0575Z" fill="#363538"/>
<path fill-rule="evenodd" clip-rule="evenodd" d="M0.566107 7.75293C0.323984 3.87896 3.40064 0.604004 7.28217 0.604004H13.2919C15.0524 0.604004 16.4794 2.0311 16.4794 3.7915C16.4794 4.37831 16.9551 4.854 17.5419 4.854H20.866C24.659 4.854 27.6493 8.08309 27.3583 11.865L26.7955 19.1826C26.5258 22.6885 23.6023 25.3957 20.0861 25.3957H7.9905C4.43708 25.3957 1.4961 22.6328 1.27444 19.0863L0.566107 7.75293ZM7.28217 2.729C4.62639 2.729 2.52131 4.96976 2.68697 7.62037L3.3953 18.9537C3.54696 21.3803 5.55921 23.2707 7.9905 23.2707H20.0861C22.4919 23.2707 24.4922 21.4184 24.6767 19.0196L25.2396 11.702C25.4356 9.1543 23.4212 6.979 20.866 6.979H17.5419C15.7815 6.979 14.3544 5.55191 14.3544 3.7915C14.3544 3.2047 13.8787 2.729 13.2919 2.729H7.28217Z" fill="#363538"/>
</svg>
