<svg width="320" height="312" viewBox="0 0 320 312" fill="none" xmlns="http://www.w3.org/2000/svg">
<path d="M319.5 147.253V153.473C316.503 161.188 310.81 164.136 302.653 163.58C296.768 163.181 290.825 163.414 284.906 163.53C280.137 163.621 275.534 163.414 271.796 159.452C268.504 169.242 268.16 179.78 270.806 189.763C271.638 193.085 272.412 196.083 276.841 196.099C278.414 196.099 279.92 197.212 281.269 198.225C286.904 202.485 288.194 208.19 286.646 214.95C287.77 215.008 288.794 215.033 289.817 215.108C293.425 215.327 296.831 216.84 299.408 219.367C301.986 221.894 303.561 225.266 303.843 228.86C304.326 236.002 299.09 242.902 291.873 244.015C289.643 244.364 288.952 245.369 288.402 247.146C285.065 257.68 285.033 268.98 288.311 279.533C288.985 281.767 290.017 282.855 292.381 283.386C295.919 284.139 299.047 286.184 301.151 289.119C303.255 292.054 304.183 295.668 303.754 299.252C303.324 302.835 301.568 306.129 298.829 308.486C296.091 310.844 292.568 312.095 288.952 311.994C208.588 311.994 128.222 311.994 47.8536 311.994C45.0583 311.993 42.27 311.715 39.5298 311.164C18.2293 306.912 1.41523 287.912 0.549558 267.251C-0.440971 243.5 13.493 223.504 35.5094 217.051C36.2419 216.835 37.2324 217.093 37.6153 215.955C36.8412 215.324 36.0255 214.693 35.2431 214.028C19.4279 200.509 13.2933 183.477 18.7703 163.372C23.9893 144.272 37.1242 132.646 56.6601 128.61C59.5568 128.012 60.6056 127.107 60.5557 123.968C60.3392 111.13 60.3725 98.2745 60.5557 85.4361C60.5557 82.6707 59.7233 81.5081 57.1429 80.6362C42.6179 75.7698 28.1678 70.671 13.6845 65.7299C10.638 64.6836 8.04928 63.1805 6.63424 60.0996C4.06219 54.4942 6.63424 48.6562 12.8604 46.4888C34.9462 38.799 57.043 31.148 79.151 23.5357C82.4805 22.3814 85.81 21.169 89.1395 20.0811C92.469 18.9932 94.9661 19.9399 96.0399 22.7966C97.0221 25.4955 95.6071 27.7792 92.1444 29.083L90.6877 29.6227L21.4256 53.506C19.4196 54.1952 17.4468 54.9675 15.1245 55.8145C15.4599 56.0958 15.8224 56.3434 16.2066 56.5536C30.2738 61.4449 44.3576 66.2946 58.3998 71.2357C60.7138 72.0661 60.4391 70.4966 60.6805 69.2509C61.8375 63.2552 65.217 59.9501 71.1435 59.0034C75.4386 58.3141 79.7336 57.5917 84.0287 56.919C100.533 54.3943 117.169 52.8167 133.855 52.1939C152.424 51.4683 171.02 51.8649 189.541 53.3814C204.524 54.5772 219.415 56.5287 234.215 59.1363C236.647 59.5509 238.872 60.7578 240.544 62.5683C242.216 64.3788 243.239 66.6908 243.454 69.143C243.695 71.5844 244.444 71.7256 246.55 70.9782C259.128 66.5437 271.763 62.2338 284.374 57.8657C285.864 57.3508 287.487 57.0934 288.802 56.0886C288.302 55.0422 287.329 55.1004 286.613 54.8512C243.884 40.053 201.155 25.2768 158.427 10.5228C154.195 9.02916 149.569 9.08507 145.375 10.6806C135.245 14.293 125.057 17.7476 114.877 21.2022C110.756 22.5973 107.094 20.0146 107.835 16.3275C108.293 14.0605 109.891 12.9477 111.997 12.2252C122.093 8.80382 132.182 5.37415 142.212 1.77838C148.473 -0.558021 155.363 -0.593358 161.648 1.67872C204.377 16.477 247.105 31.231 289.834 45.9407C296.618 48.2825 298.574 50.9233 298.591 58.0318C298.591 67.5652 298.591 77.0957 298.591 86.6236C298.591 88.1682 298.79 89.1149 300.547 89.8955C312.408 94.9445 316.179 107.451 309.245 118.446C308.654 119.384 308.33 120.107 308.812 121.236C312.408 129.906 315.962 138.567 319.5 147.253ZM166.626 224.641C131.111 224.641 95.596 224.641 60.0812 224.641C55.2035 224.641 50.3091 224.567 45.448 224.899C25.8455 226.236 8.36558 243.824 10.022 266.096C11.6202 287.596 28.5258 302.635 50.1509 302.635C129.071 302.635 207.989 302.635 286.904 302.635C288.143 302.686 289.383 302.571 290.592 302.295C291.727 302.042 292.728 301.376 293.398 300.427C294.069 299.479 294.362 298.315 294.221 297.163C294.239 296.008 293.821 294.889 293.05 294.027C292.279 293.166 291.211 292.625 290.059 292.512C288.928 292.353 287.788 292.281 286.646 292.297C276.574 292.297 266.503 292.297 256.431 292.297C252.785 292.297 250.604 290.511 250.604 287.679C250.604 284.848 252.901 282.846 256.597 282.83C263.256 282.83 269.915 282.763 276.533 282.83C278.705 282.83 279.413 282.572 278.714 280.097C275.647 269.285 275.621 257.839 278.639 247.013C279.271 244.713 278.922 244.19 276.574 244.206C263.489 244.289 250.404 244.314 237.319 244.206C234.822 244.206 234.431 245.12 234.464 247.279C234.573 254.421 234.331 261.579 234.556 268.721C234.722 274.044 230.652 276.734 226.523 274.218C219.032 269.651 211.732 270.224 204.091 274.218C199.413 276.643 196.291 274.218 196.267 268.928C196.267 261.886 196.117 254.811 196.325 247.802C196.416 244.937 195.576 244.231 192.737 244.239C147.561 244.334 102.391 244.356 57.2262 244.306C54.5209 244.306 51.824 244.239 49.1271 244.306C38.4477 244.655 29.9824 252.751 29.7827 262.775C29.533 274.26 37.9483 282.821 49.6016 282.821C109.932 282.821 170.266 282.821 230.602 282.821C231.743 282.764 232.886 282.787 234.023 282.888C236.52 283.245 238.568 285.495 238.293 287.804C237.994 290.295 236.628 292.014 233.898 292.222C232.758 292.305 231.618 292.297 230.469 292.297H51.6159C49.9512 292.297 48.2864 292.238 46.6217 292.139C29.6079 291.092 16.989 274.235 20.818 257.676C24.006 243.882 35.2597 234.922 49.56 234.922C128.486 234.922 207.406 234.922 286.321 234.922C287.462 234.976 288.605 234.951 289.742 234.847C290.996 234.7 292.15 234.095 292.983 233.149C293.816 232.203 294.269 230.983 294.254 229.724C294.275 228.467 293.809 227.252 292.953 226.331C292.096 225.41 290.916 224.855 289.659 224.782C288.42 224.659 287.175 224.615 285.93 224.65L166.626 224.641ZM272.229 137.247H65.9162C63.3254 137.241 60.7388 137.452 58.1834 137.878C37.6486 141.316 22.9155 162.658 27.0525 183.045C30.9979 202.485 46.4219 215.083 66.3906 215.083C134.512 215.083 202.634 215.083 270.756 215.083C271.689 215.146 272.625 215.121 273.553 215.008C276.233 214.477 277.756 212.808 277.765 210.026C277.858 208.818 277.475 207.622 276.698 206.691C275.921 205.761 274.81 205.169 273.603 205.043C272.365 204.902 271.117 204.868 269.874 204.943H128.419C127.28 205.015 126.136 204.965 125.007 204.794C122.51 204.238 120.928 202.56 121.02 199.977C120.999 198.867 121.403 197.79 122.15 196.966C122.897 196.143 123.93 195.634 125.04 195.543C126.379 195.378 127.728 195.309 129.077 195.335C172.361 195.335 215.661 195.352 258.978 195.385C261.866 195.385 262.432 194.829 261.65 191.964C258.762 181.424 258.794 170.3 261.741 159.776C262.341 157.542 262.091 156.903 259.685 156.911C214.182 156.961 168.698 156.961 123.234 156.911C121.169 156.911 120.603 157.559 120.628 159.56C120.737 166.602 120.678 173.678 120.628 180.695C120.628 186.715 117.682 189.057 112.438 186.325C104.946 182.43 97.8462 182.123 90.5795 186.45C86.2595 189.032 82.1559 186.45 82.3723 180.936C82.6386 173.794 82.3723 166.644 82.4638 159.494C82.4638 157.7 82.031 156.87 80.0333 156.92C74.7477 157.052 69.4371 156.82 64.1515 157.077C61.2469 157.242 58.4188 158.069 55.8843 159.494C53.3497 160.919 51.1761 162.904 49.5302 165.298C47.8843 167.691 46.8098 170.429 46.3893 173.301C45.9688 176.173 46.2135 179.103 47.1044 181.866C49.7597 190.261 56.7683 195.277 66.2491 195.335C78.5017 195.41 90.7543 195.335 103.007 195.385C106.545 195.385 108.767 197.411 108.742 200.193C108.717 202.975 106.503 204.943 103.265 204.952C90.3881 204.993 77.4613 205.292 64.6426 204.86C60.2196 204.733 55.8858 203.587 51.9792 201.514C48.0727 199.441 44.6988 196.495 42.1208 192.907C39.5428 189.319 37.8302 185.186 37.1165 180.829C36.4029 176.472 36.7075 172.01 38.0066 167.79C41.7439 155.333 53.0476 147.361 67.0982 147.353H264.213C265.146 147.353 266.086 147.303 267.019 147.353C267.431 147.409 267.85 147.309 268.192 147.072C268.534 146.835 268.775 146.479 268.866 146.074C269.915 143.284 271.014 140.502 272.229 137.247ZM151.934 127.688H175.915C194.294 127.688 212.673 127.688 231.052 127.73C233.357 127.73 234.431 127.323 234.231 124.707C233.992 121.39 233.992 118.059 234.231 114.742C234.414 112.193 233.474 111.669 231.11 111.711C222.786 111.844 214.462 111.786 206.188 111.711C202.926 111.711 200.728 109.751 200.703 107.019C200.678 104.287 202.776 102.452 206.139 102.31C206.971 102.269 207.803 102.31 208.636 102.31C216.21 102.31 223.793 102.244 231.368 102.352C233.474 102.352 234.256 101.895 234.223 99.6281C234.098 90.4103 234.123 81.1925 234.223 71.9747C234.223 69.5499 233.391 68.545 230.893 68.1049C210.477 64.4385 189.822 62.2406 169.089 61.5279C137.038 60.3142 104.947 62.5218 73.366 68.1132C70.8688 68.57 70.0364 69.5997 70.103 71.9747C70.1779 80.8853 70.2778 89.7958 70.0531 98.698C69.9699 101.82 71.0103 102.385 73.907 102.377C109.422 102.277 144.937 102.258 180.451 102.319C181.7 102.319 182.948 102.319 184.189 102.418C185.247 102.448 186.257 102.866 187.025 103.592C187.793 104.318 188.265 105.302 188.351 106.355C188.7 108.514 187.693 110.116 185.779 111.204C184.513 111.927 183.157 111.736 181.825 111.736H89.9053C84.4033 111.736 78.8929 111.86 73.3992 111.678C70.9021 111.595 69.8367 112.143 70.0697 114.858C70.3028 117.574 70.0697 120.447 70.128 123.237C70.1946 128.17 69.4038 127.614 74.6728 127.622C100.432 127.677 126.186 127.699 151.934 127.688ZM289.018 66.4607C288.286 66.6351 287.895 66.7015 287.52 66.8344C273.644 71.626 259.785 76.4757 245.901 81.1676C243.995 81.807 243.629 82.7703 243.637 84.5309C243.687 97.9921 243.712 111.453 243.637 124.915C243.637 127.082 244.278 127.755 246.451 127.73C254.957 127.622 263.473 127.522 271.98 127.771C275.309 127.863 277.273 127.032 277.906 123.661C278.222 121.95 280.012 120.522 278.53 118.487C276.829 116.098 275.705 113.349 275.246 110.454C274.788 107.559 275.008 104.598 275.888 101.802C276.768 99.0058 278.286 96.4511 280.321 94.338C282.357 92.2248 284.855 90.6104 287.62 89.6214C288.452 89.3141 289.068 89.0318 289.068 87.9605C289.01 80.9102 289.018 73.7602 289.018 66.4607ZM293.796 154.113C297.833 154.113 301.87 154.187 305.907 154.113C309.037 154.038 310.81 151.738 309.736 148.947C306.865 141.557 303.81 134.232 300.863 126.866C300.439 125.812 299.981 125.471 298.782 125.828C295.591 126.796 292.184 126.796 288.993 125.828C287.578 125.396 287.179 125.92 286.738 127.016C283.849 134.182 280.853 141.299 278.048 148.499C276.807 151.696 278.53 154.038 281.993 154.104C285.922 154.171 289.859 154.113 293.796 154.113ZM224.867 254.039C224.867 251.655 224.75 249.264 224.867 246.897C224.984 244.937 224.459 244.14 222.32 244.215C217.75 244.372 213.164 244.364 208.611 244.215C206.488 244.148 205.681 244.729 205.764 246.963C205.922 251.115 205.806 255.268 205.806 259.42C205.806 263.572 205.955 263.796 209.468 261.986C213.555 259.893 217.342 259.86 221.271 262.061C221.83 262.331 222.406 262.567 222.994 262.766C224.251 263.298 224.9 263.09 224.85 261.521C224.8 259.013 224.859 256.522 224.867 254.039ZM92.0528 175.513C92.7535 175.406 93.4402 175.222 94.1005 174.965C98.9616 172.233 103.831 171.942 108.734 174.84C108.822 174.894 108.914 174.941 109.008 174.981C110.39 175.596 111.139 175.363 111.123 173.653C111.084 168.67 111.084 163.707 111.123 158.763C111.123 157.41 110.523 156.953 109.241 156.961C104.053 156.994 98.87 156.994 93.6926 156.961C92.5106 156.961 92.0279 157.426 92.0279 158.622C92.0528 164.186 92.0528 169.766 92.0528 175.513ZM293.996 116.909C295.234 116.883 296.455 116.613 297.589 116.115C298.723 115.618 299.748 114.902 300.605 114.01C301.462 113.117 302.134 112.065 302.583 110.913C303.032 109.761 303.25 108.533 303.223 107.297C303.196 106.062 302.926 104.843 302.427 103.712C301.928 102.581 301.211 101.559 300.316 100.704C299.422 99.8489 298.367 99.1783 297.213 98.7301C296.058 98.282 294.827 98.0651 293.588 98.0918C291.148 98.2323 288.857 99.3119 287.198 101.103C285.539 102.895 284.642 105.259 284.695 107.697C284.748 110.135 285.747 112.458 287.481 114.176C289.216 115.894 291.552 116.874 293.996 116.909Z" fill="#224982"/>
</svg>
